<svg xmlns="http://www.w3.org/2000/svg" baseProfile="full" version="1.1" style="fill: none;" width="540" height="540">
<rect style="stroke: none; stroke-width: 1; stroke-dasharray: none; stroke-linecap: butt; stroke-dashoffset: 0; stroke-linejoin: miter; stroke-miterlimit: 4; fill: rgb(238,238,238); fill-rule: nonzero; opacity: 1;" vector-effect="non-scaling-stroke" x="" y="" rx="0" ry="0" width="1080" height="1080"/>
<path style="stroke-width: 32px; stroke-linecap: butt; stroke-linejoin: bevel; stroke: rgb(10, 10, 10); fill: none;" d="M60,60 A420,420 0 0,1 480,480 M60,60 A420,420 0 0,0 480,480 "/>
<path style="stroke-width: 32px; stroke-linecap: round; stroke-linejoin: bevel; stroke: rgb(10, 10, 10); fill: rgb(10, 10, 10);" d="M60,75 L60,75 L60,60 L75,60 M465,480 L465,480 L480,480 L480,465 "/>
<path style="stroke-width: 32px; stroke-linecap: round; stroke-linejoin: miter; stroke: rgb(10, 10, 10); fill: none;" d="M270,210 A60,60 0 0,1 330,270 A60,60 0 0,1 270,330 A60,60 0 0,1 210,270 A60,60 0 0,1 270,210 M120,270 A150,150 0 0,1 270,120 M270,420 A150,150 0 0,0 420,270 "/>
</svg>

